<?xml version="1.0" encoding="iso-8859-1"?>
<!-- Generator: Adobe Illustrator 16.0.0, SVG Export Plug-In . SVG Version: 6.00 Build 0)  -->
<!DOCTYPE svg PUBLIC "-//W3C//DTD SVG 1.1//EN" "http://www.w3.org/Graphics/SVG/1.1/DTD/svg11.dtd">
<svg version="1.1" id="Capa_1" xmlns="http://www.w3.org/2000/svg" xmlns:xlink="http://www.w3.org/1999/xlink" x="0px" y="0px"
	 width="46px" height="46px" viewBox="0 0 46 46" style="enable-background:new 0 0 46 46;" xml:space="preserve">
<g>
	<path d="M23,0C10.316,0,0,10.316,0,23c0,12.684,10.316,23,23,23c12.684,0,23-10.316,23-23C46,10.316,35.684,0,23,0z M23,40
		c-9.374,0-17-7.626-17-17S13.626,6,23,6s17,7.626,17,17S32.374,40,23,40z M23,9.75C15.693,9.75,9.75,15.693,9.75,23
		c0,7.307,5.943,13.25,13.25,13.25c7.307,0,13.25-5.943,13.25-13.25C36.25,15.693,30.307,9.75,23,9.75z M23,30.25
		c-3.998,0-7.25-3.252-7.25-7.25s3.252-7.25,7.25-7.25s7.25,3.252,7.25,7.25S26.998,30.25,23,30.25z M26.75,23
		c0,2.07-1.68,3.75-3.75,3.75c-2.07,0-3.75-1.68-3.75-3.75c0-2.07,1.68-3.75,3.75-3.75C25.07,19.25,26.75,20.93,26.75,23z"/>
</g>
<g>
</g>
<g>
</g>
<g>
</g>
<g>
</g>
<g>
</g>
<g>
</g>
<g>
</g>
<g>
</g>
<g>
</g>
<g>
</g>
<g>
</g>
<g>
</g>
<g>
</g>
<g>
</g>
<g>
</g>
</svg>
